<svg width="309" height="79" viewBox="0 0 309 79" fill="none" xmlns="http://www.w3.org/2000/svg">
<path d="M0 24.5955H8.98626L16.1588 52.0297L23.084 25.8387H30.4214L37.429 52.0297L44.4366 24.5955H53.4229L41.8809 64.1306H33.7191L26.629 37.4423L19.7038 64.1306H11.6244L0 24.5955Z" fill="black"/>
<path d="M57.6274 47.4712C58.0396 53.7703 63.6457 57.3342 69.0045 57.2513C73.6213 57.2513 76.6717 55.1793 78.4854 51.9468H88.1312C86.235 56.3396 83.5144 59.6549 80.1343 61.8928C76.8366 64.2135 72.9618 65.3739 68.9221 65.3739C56.803 65.3739 48.1465 55.5108 48.1465 44.4874C48.1465 33.2982 56.8854 23.4351 68.7572 23.4351C74.6106 23.4351 79.8045 25.673 83.432 29.4856C88.2961 34.4585 90.0274 40.6748 89.203 47.554C89.3679 47.4712 57.6274 47.4712 57.6274 47.4712ZM79.9694 40.2603C79.6396 36.5306 75.6824 31.309 68.8396 31.3919C61.9144 31.3919 58.1221 36.4477 57.7098 40.2603H79.9694Z" fill="black"/>
<path d="M87.9663 10.8369H97.3648V24.6784V29.4027C101.24 24.5126 106.928 23.2693 110.473 23.2693C119.789 23.2693 130.095 30.1486 130.095 44.0729C130.095 57.5 120.779 65.2081 110.061 65.2081C103.878 65.2081 99.0961 62.1414 97.035 58.3288V64.0477H87.9663V10.8369ZM120.531 44.2387C120.531 37.7738 115.585 32.1378 108.742 32.1378C101.487 32.1378 96.8701 37.8567 96.8701 44.3216C96.8701 50.9522 101.487 56.5883 108.495 56.5883C116.162 56.5883 120.531 50.4549 120.531 44.2387Z" fill="black"/>
<path d="M131.908 25.0099H140.73V30.7288C143.533 26.7504 148.067 23.7667 154.58 23.7667C168.348 23.7667 174.119 35.4531 174.119 45.0676C174.119 56.2568 166.122 65.7054 154.662 65.7054C146.995 65.7054 142.873 61.727 141.307 59.2405V64.545V78.3865H131.991L131.908 25.0099ZM164.803 44.8189C164.803 39.1 160.681 32.6351 152.766 32.6351C149.304 32.6351 146.336 34.0441 144.275 36.1991C142.214 38.354 140.894 41.5036 140.894 44.9018C140.894 48.3 142.131 51.3667 144.357 53.4387C146.501 55.5937 149.469 56.9198 152.849 56.9198C160.104 57.0027 164.803 51.2838 164.803 44.8189Z" fill="#FFA817"/>
<path d="M214.681 64.545H205.365V58.8261C202.809 63.4676 197.615 65.7054 192.091 65.7054C179.478 65.7054 172.14 55.8423 172.14 44.6531C172.14 32.2207 181.044 23.7667 192.091 23.7667C199.264 23.7667 203.633 27.5793 205.365 30.7288V25.0099H214.681V64.545ZM181.374 44.9847C181.374 49.8748 184.836 57.0027 193.328 57.0027C198.604 57.0027 201.984 54.2676 203.798 50.7036C204.705 49.0459 205.2 47.1396 205.282 45.1504C205.365 43.2441 204.952 41.3378 204.21 39.5973C202.562 35.8676 198.934 32.6351 193.245 32.6351C185.661 32.6351 181.374 38.8513 181.374 44.9847Z" fill="#FFA817"/>
<path d="M225.975 63.0531L211.136 25.0099H221.111L230.675 51.2838L240.156 25.0099H250.131L229.438 78.3865H219.462L225.975 63.0531Z" fill="#FFA817"/>
<path d="M280.058 0.559459C279.316 -0.186487 278.162 -0.186487 277.502 0.559459L254.253 23.9324C253.511 24.6784 253.017 25.1757 253.017 25.1757C253.017 25.1757 253.017 26.0045 253.017 26.9991V53.6874C253.017 54.682 253.841 55.5108 254.83 55.5108H281.377C282.366 55.5108 283.768 54.9306 284.427 54.2676L307.676 30.8946C308.418 30.1487 308.418 28.9883 307.676 28.3252L280.058 0.559459Z" fill="#FF0005"/>
<path d="M256.892 27.4136H259.2V29.6514C260.189 28.1595 261.756 27.082 264.064 27.082C268.434 27.082 270.495 30.7289 270.495 33.9613C270.495 37.6082 267.939 40.5919 264.064 40.5919C261.426 40.5919 259.86 39.1001 259.282 38.1055V40.2604V44.9019H256.892V27.4136ZM268.021 33.7127C268.021 31.6406 266.537 29.237 263.569 29.237C262.333 29.237 261.179 29.7343 260.437 30.5631C259.612 31.3919 259.2 32.4694 259.2 33.7955C259.2 35.0388 259.695 36.1992 260.437 36.9451C261.261 37.7739 262.333 38.1883 263.569 38.1883C266.208 38.2712 268.021 36.1991 268.021 33.7127Z" fill="white"/>
<path d="M271.237 22.7721H273.628V40.1775H271.237V22.7721Z" fill="white"/>
<path d="M286.818 40.1775H284.51V38.1883C283.933 39.5144 282.449 40.5919 280.223 40.5919C276.101 40.5919 275.111 37.5252 275.111 34.9559V27.4135H277.502V34.2928C277.502 36.6135 278.409 38.2712 280.882 38.2712C283.273 38.2712 284.345 36.6964 284.345 34.5414V27.4135H286.736V40.1775H286.818Z" fill="white"/>
<path d="M293.826 30.7289C293.826 29.7343 293.249 28.9883 291.93 29.0712C290.693 29.0712 290.034 29.9001 290.116 30.7289C290.199 31.7235 291.105 32.2208 292.425 32.6352C294.321 33.2154 296.464 33.7127 296.547 36.5307C296.629 39.0172 294.568 40.6748 292.012 40.6748C290.034 40.6748 287.478 39.5145 287.396 36.6136H289.786C289.869 38.1883 291.105 38.6856 292.012 38.6856C293.167 38.6856 294.073 37.8568 294.073 36.7793C294.073 35.5361 293.084 35.1217 290.858 34.3757C289.127 33.7955 287.643 32.9667 287.643 31.0604C287.643 28.6568 289.621 27.1649 291.93 27.1649C293.661 27.1649 295.97 27.9937 296.134 30.8946L293.826 30.7289Z" fill="white"/>
</svg>
